<?xml version="1.0" encoding="UTF-8"?>
<!-- Generator: Adobe Illustrator 16.0.0, SVG Export Plug-In . SVG Version: 6.00 Build 0)  -->
<!DOCTYPE svg PUBLIC "-//W3C//DTD SVG 1.1//EN" "http://www.w3.org/Graphics/SVG/1.1/DTD/svg11.dtd">
<svg version="1.1" id="Layer_1" xmlns="http://www.w3.org/2000/svg" xmlns:xlink="http://www.w3.org/1999/xlink" x="0px" y="0px" width="1514px" height="162px" viewBox="0 0 1514 162" enable-background="new 0 0 1514 162" xml:space="preserve">
<rect x="-1258.667" y="-157.461" fill="#FFFFFF" width="391.333" height="75.433"/>
<polygon fill="#202020" points="182.024,151.759 106.006,46.979 106.006,151.759 85.842,151.759 85.842,5.427 102.614,5.427   178.859,110.891 178.859,5.427 198.8,5.427 198.8,151.759 "/>
<polygon fill="#202020" points="579.787,151.759 503.543,46.933 503.543,151.759 483.605,151.759 483.605,5.427 500.381,5.427   576.4,110.845 576.4,5.427 596.562,5.427 596.562,151.759 "/>
<polygon fill="#202020" points="917.772,151.759 841.75,46.979 841.75,151.759 821.592,151.759 821.592,5.427 838.363,5.427   914.601,110.891 914.601,5.427 934.549,5.427 934.549,151.759 "/>
<path fill="#202020" d="M1029.561,151.332c-12.33-0.082-23.091-3.936-32.001-11.449c-9.268-7.847-13.967-17.541-13.967-28.822  v-7.384h20.286l0.076,7.313c0.045,5.387,2.314,9.759,7.109,13.768c5.104,4.262,11.16,6.331,18.547,6.331  c5.613-0.052,10.33-2.006,14.346-5.97c3.953-3.907,5.853-8.479,5.801-13.989c0-2.522,0-9.979-16.023-17.121  c-13.886-6.203-25.367-12.213-34.094-17.878c-10.505-6.809-16.048-17.477-16.048-30.853c0.089-11.386,4.795-21.104,13.994-28.96  C1006.397,8.808,1017.043,5,1029.256,5l0.402,0.007c11.133,0,20.801,3.946,28.676,11.741l5.354,5.288l-14.643,14.165l-5.181-5.189  c-3.88-3.879-8.44-5.768-13.942-5.768c-7.71,0.007-13.808,2.069-18.946,6.308c-4.794,3.947-7.021,8.305-7.021,13.727  c0,2.521,0,10.198,13.633,17.233c11.784,6.079,22.938,11.921,33.169,17.374c12.664,6.746,19.357,17.521,19.357,31.175  c0,11.049-3.964,20.614-11.804,28.45c-7.839,7.845-17.51,11.821-28.699,11.821H1029.561z"/>
<polygon fill="#202020" points="1146.504,151.759 1146.504,26.219 1102.83,26.219 1102.83,5.427 1210.33,5.427 1210.33,26.219   1166.654,26.219 1166.654,151.759 "/>
<polygon fill="#202020" points="1474.746,151.759 1442.124,99.732 1409.514,151.759 1385.325,151.759 1430.006,78.91   1385.325,5.427 1409.514,5.427 1442.124,58.078 1474.746,5.427 1498.972,5.427 1454.242,78.499 1498.878,151.759 "/>
<rect x="20.466" y="5.427" fill="#202020" width="20.187" height="146.332"/>
<rect x="756.223" y="5.427" fill="#202020" width="20.18" height="146.332"/>
<path fill="#202020" d="M1324.515,151.759v-17.605h-51.232v17.605h-20.18V5.427h92.603l0.211,7.743v138.589H1324.515z   M1324.515,113.367V26.213h-50.626v87.154H1324.515z"/>
<path fill="#202020" d="M417.007,151.759v-17.605h-51.243v17.605H345.59V5.427h92.615l0.202,7.743v138.589H417.007z   M417.007,113.367V26.213h-50.629v87.154H417.007z"/>
</svg>