<?xml version="1.0" encoding="UTF-8"?>
<!-- Generator: Adobe Illustrator 16.0.0, SVG Export Plug-In . SVG Version: 6.00 Build 0)  -->
<!DOCTYPE svg PUBLIC "-//W3C//DTD SVG 1.1//EN" "http://www.w3.org/Graphics/SVG/1.1/DTD/svg11.dtd">
<svg version="1.1" id="Layer_1" xmlns="http://www.w3.org/2000/svg" xmlns:xlink="http://www.w3.org/1999/xlink" x="0px" y="0px" width="82px" height="87px" viewBox="0 0 82 87" enable-background="new 0 0 82 87" xml:space="preserve">
<g>
	<path fill="#202020" d="M31.688,18c9.202,0,16.688,7.486,16.688,16.688c0,9.201-7.486,16.688-16.688,16.688   C22.486,51.376,15,43.89,15,34.688C15,25.486,22.486,18,31.688,18 M31.688,8C16.948,8,5,19.948,5,34.688   c0,14.739,11.948,26.688,26.688,26.688c14.74,0,26.688-11.948,26.688-26.688C58.376,19.948,46.428,8,31.688,8L31.688,8z"/>
</g>
<rect x="52.446" y="43.287" transform="matrix(0.6857 -0.7279 0.7279 0.6857 -26.3274 61.785)" fill="#202020" width="11.86" height="36.178"/>
</svg>